<svg role="img" aria-label="Продуктовая композиция Nexora" xmlns="http://www.w3.org/2000/svg" width="800" height="1000" viewBox="0 0 800 1000"><title>Геометрия отчёта: источники и этапы результата</title><rect width="800" height="1000" fill="#0d0710"/><path d="M40 120L56 120" fill="none" stroke="#5d485b" stroke-width="1"/><path d="M40 192L48 192" fill="none" stroke="#5d485b" stroke-width="1"/><path d="M40 264L56 264" fill="none" stroke="#5d485b" stroke-width="1"/><path d="M40 336L48 336" fill="none" stroke="#5d485b" stroke-width="1"/><path d="M40 408L56 408" fill="none" stroke="#5d485b" stroke-width="1"/><path d="M40 480L48 480" fill="none" stroke="#5d485b" stroke-width="1"/><path d="M40 552L56 552" fill="none" stroke="#5d485b" stroke-width="1"/><path d="M40 624L48 624" fill="none" stroke="#5d485b" stroke-width="1"/><path d="M40 696L56 696" fill="none" stroke="#5d485b" stroke-width="1"/><path d="M40 768L48 768" fill="none" stroke="#5d485b" stroke-width="1"/><path d="M40 840L56 840" fill="none" stroke="#5d485b" stroke-width="1"/><path d="M64 100L736 100" fill="none" stroke="#3a243f" stroke-width="1"/><path d="M64 900L736 900" fill="none" stroke="#3a243f" stroke-width="1"/><circle cx="400" cy="500" r="296" fill="none" stroke="#3a243f" stroke-width="1"/><circle cx="400" cy="500" r="240" fill="none" stroke="#c9a45c" stroke-width="1"/><path d="M64 500L736 500" fill="none" stroke="#3a243f" stroke-width="1"/><path d="M400 152L400 848" fill="none" stroke="#3a243f" stroke-width="1"/><path d="M100 760L700 760" fill="none" stroke="#c9a45c" stroke-width="1"/><path d="M100 220L100 760" fill="none" stroke="#c9a45c" stroke-width="1"/><path d="M100 300L700 300" fill="none" stroke="#3a243f" stroke-width="1"/><path d="M100 420L700 420" fill="none" stroke="#3a243f" stroke-width="1"/><path d="M100 540L700 540" fill="none" stroke="#3a243f" stroke-width="1"/><path d="M100 660L700 660" fill="none" stroke="#3a243f" stroke-width="1"/><rect class="kinetic-piece" style="--piece:1" x="180" y="520" width="112" height="240" rx="0" fill="#201227" stroke="#c9a45c"/><path d="M180 520L212 496H324L292 520Z" fill="#32152a" stroke="#c9a45c" stroke-width="1"/><path d="M292 520L324 496V736L292 760Z" fill="#150b1a" stroke="#c9a45c" stroke-width="1"/><rect class="kinetic-piece" style="--piece:1" x="344" y="390" width="112" height="370" rx="0" fill="#201227" stroke="#c9a45c"/><path d="M344 390L376 366H488L456 390Z" fill="#32152a" stroke="#c9a45c" stroke-width="1"/><path d="M456 390L488 366V736L456 760Z" fill="#150b1a" stroke="#c9a45c" stroke-width="1"/><rect class="kinetic-piece" style="--piece:1" x="508" y="250" width="112" height="510" rx="0" fill="#ff3d7f" stroke="#ff3d7f"/><path d="M508 250L540 226H652L620 250Z" fill="#ff7aa8" stroke="#c9a45c" stroke-width="1"/><path d="M620 250L652 226V736L620 760Z" fill="#a82450" stroke="#c9a45c" stroke-width="1"/><path class="kinetic-line" d="M130 460C230 440 290 340 390 328S530 236 682 180" fill="none" stroke="#efe6dc" stroke-width="3"/><circle cx="682" cy="180" r="8" fill="#efe6dc"/></svg>
