<svg role="img" aria-label="Продуктовая композиция Nexora" xmlns="http://www.w3.org/2000/svg" width="800" height="1000" viewBox="0 0 800 1000"><title>Связанные структуры: источники, поля и запись</title><rect width="800" height="1000" fill="#0d0710"/><path d="M40 120L56 120" fill="none" stroke="#5d485b" stroke-width="1"/><path d="M40 192L48 192" fill="none" stroke="#5d485b" stroke-width="1"/><path d="M40 264L56 264" fill="none" stroke="#5d485b" stroke-width="1"/><path d="M40 336L48 336" fill="none" stroke="#5d485b" stroke-width="1"/><path d="M40 408L56 408" fill="none" stroke="#5d485b" stroke-width="1"/><path d="M40 480L48 480" fill="none" stroke="#5d485b" stroke-width="1"/><path d="M40 552L56 552" fill="none" stroke="#5d485b" stroke-width="1"/><path d="M40 624L48 624" fill="none" stroke="#5d485b" stroke-width="1"/><path d="M40 696L56 696" fill="none" stroke="#5d485b" stroke-width="1"/><path d="M40 768L48 768" fill="none" stroke="#5d485b" stroke-width="1"/><path d="M40 840L56 840" fill="none" stroke="#5d485b" stroke-width="1"/><path d="M64 100L736 100" fill="none" stroke="#3a243f" stroke-width="1"/><path d="M64 900L736 900" fill="none" stroke="#3a243f" stroke-width="1"/><circle cx="400" cy="500" r="296" fill="none" stroke="#3a243f" stroke-width="1"/><circle cx="400" cy="500" r="240" fill="none" stroke="#c9a45c" stroke-width="1"/><path d="M64 500L736 500" fill="none" stroke="#3a243f" stroke-width="1"/><path d="M400 152L400 848" fill="none" stroke="#3a243f" stroke-width="1"/><path d="M180 320L400 470" fill="none" stroke="#ff3d7f" stroke-width="4"/><path d="M620 320L400 470" fill="none" stroke="#ff3d7f" stroke-width="4"/><path d="M400 590L400 730" fill="none" stroke="#ff3d7f" stroke-width="4"/><path d="M180 210L280 260L180 310L80 260Z" fill="#201227" stroke="#c9a45c" stroke-width="1"/><path d="M80 260L180 310V410L80 360Z" fill="#201227" stroke="#c9a45c" stroke-width="1"/><path d="M180 310L280 260V360L180 410Z" fill="#32152a" stroke="#c9a45c" stroke-width="1"/><path d="M620 210L720 260L620 310L520 260Z" fill="#201227" stroke="#c9a45c" stroke-width="1"/><path d="M520 260L620 310V410L520 360Z" fill="#201227" stroke="#c9a45c" stroke-width="1"/><path d="M620 310L720 260V360L620 410Z" fill="#32152a" stroke="#c9a45c" stroke-width="1"/><path d="M400 380L550 455L400 530L250 455Z" fill="#ff3d7f" stroke="#c9a45c" stroke-width="1"/><path d="M250 455L400 530V680L250 605Z" fill="#201227" stroke="#c9a45c" stroke-width="1"/><path d="M400 530L550 455V605L400 680Z" fill="#32152a" stroke="#c9a45c" stroke-width="1"/><path d="M400 720L480 760L400 800L320 760Z" fill="#201227" stroke="#c9a45c" stroke-width="1"/><path d="M320 760L400 800V880L320 840Z" fill="#201227" stroke="#c9a45c" stroke-width="1"/><path d="M400 800L480 760V840L400 880Z" fill="#32152a" stroke="#c9a45c" stroke-width="1"/></svg>
